<?xml version="1.0" encoding="UTF-8"?>
<svg id="Layer_2" data-name="Layer 2" xmlns="http://www.w3.org/2000/svg" viewBox="0 0 518.04 542.21">
  <defs>
    <style>
      .cls-1 {
        fill: #ca9e5d;
      }

      .cls-2 {
        fill: #05192a;
      }
    </style>
  </defs>
  <g id="Cover">
    <g>
      <path class="cls-2" d="M227.9,219.03l-2.59,17.86-.04.17v.04h-.13l-17.86,2.59-1.81-2.59-11.04-15.53c-6.38-9.02-13.2-18.55-19.8-27.82-1.94-2.76-3.88-5.48-5.82-8.2-4.31-6.04-8.45-11.91-12.29-17.26,2.68,1.9,5.82,4.14,9.36,6.69l24.42,17.34,6.34,4.49v.04c2.16,1.55,4.27,3.06,6.34,4.49l1.81,1.29,6.99,4.96,10.01,7.12,6.13,4.31Z"/>
      <g>
        <path class="cls-1" d="M277.52,446.07v6.77c-.35,1.27-1.53,2.27-2.93,2.36-.13,3.28-1.49,6.29-3.67,8.52-2.97,3.1-3.8,7.73-2.75,11.89,3.93,14.77,6.42,34.52,6.42,41.73,0,9.79-4.63,18.05-10.97,20.8-.31,2.27-2.18,4.06-4.59,4.06-2.4-.04-4.33-1.79-4.63-4.06-6.29-2.75-10.88-11.01-10.88-20.8,0-7.21,2.49-26.96,6.34-41.73,1.14-4.15.26-8.78-2.75-11.89-2.23-2.23-3.5-5.24-3.58-8.52-1.75-.13-3.15-1.57-3.15-3.32v-5.86c6.12.66,12.37,1,18.66,1s12.41-.31,18.48-.96Z"/>
        <path class="cls-1" d="M170.5,423.13l-3.41,4.72c-1.09,1.44-3.06,1.75-4.5.79-2.05,2.62-4.89,4.28-7.95,4.76-4.28.79-7.69,3.98-9.31,8-5.55,14.16-15.29,31.55-19.53,37.36-5.77,7.87-14.38,11.84-21.11,10.31-.92.96-2.18,1.4-3.41,1.4-.92,0-1.88-.26-2.71-.87-1.92-1.4-2.45-3.98-1.35-5.99-3.41-5.94-2.23-15.34,3.58-23.25,4.24-5.81,17.91-20.28,29.76-29.85,3.41-2.71,5.46-6.9,4.85-11.19-.44-3.1.26-6.29,2.18-9.05-1.35-1.14-1.62-3.06-.61-4.46l3.5-4.76c9.17,8.39,19.23,15.82,30.02,22.07Z"/>
        <path class="cls-1" d="M97.53,341.02l-5.55,1.7c-1.62.52-3.41-.39-4.06-2.05-3.15.96-6.42.61-9.22-.83-3.84-1.97-8.52-1.4-12.19.92-12.89,8.04-31.03,16.34-37.89,18.48-9.35,2.93-18.62.96-23.12-4.24-2.27.39-4.54-.87-5.29-3.15v-.04c-.7-2.27.39-4.63,2.53-5.59.74-6.9,7.25-13.72,16.56-16.61,6.9-2.18,26.53-5.72,41.73-6.38,4.33-.22,8.48-2.4,10.57-6.16,1.44-2.75,3.89-4.94,7.08-6.03-.44-1.66.57-3.41,2.18-3.93l5.59-1.7c2.4,12.41,6.16,24.34,11.06,35.61Z"/>
        <path class="cls-1" d="M98.53,198.87c-5.02,11.23-8.96,23.12-11.54,35.48l-5.59-1.84c-1.62-.57-2.53-2.27-2.1-4.02-3.15-1.14-5.64-3.32-7.04-6.07-2.01-3.85-6.12-6.07-10.49-6.29-15.12-.92-34.74-4.72-41.56-6.95-9.31-3.02-15.73-10.01-16.39-16.87-2.05-1.01-3.15-3.36-2.4-5.64v-.04c.74-2.23,3.01-3.5,5.29-3.06,4.59-5.2,13.9-6.99,23.16-3.89,6.86,2.18,24.91,10.75,37.62,19.01,3.71,2.32,8.3,2.97,12.19,1.09,2.8-1.35,6.07-1.75,9.26-.74.66-1.66,2.45-2.49,4.06-1.97l5.51,1.79Z"/>
        <path class="cls-1" d="M170.55,119.08c-10.79,6.29-20.84,13.68-30.02,22.07l-3.54-4.72c-1-1.4-.74-3.41.61-4.5-1.92-2.71-2.62-5.94-2.18-9,.61-4.28-1.44-8.52-4.85-11.23-11.84-9.57-25.52-24.08-29.76-29.85-5.81-7.87-6.99-17.26-3.58-23.25-.39-.7-.57-1.44-.57-2.23,0-1.4.66-2.8,1.92-3.76,1.92-1.4,4.46-1.09,6.12.52,6.73-1.49,15.34,2.45,21.11,10.31,4.24,5.86,13.98,23.25,19.53,37.36,1.62,4.06,5.02,7.3,9.31,7.95,3.06.52,5.9,2.18,7.95,4.81,1.44-.96,3.41-.57,4.5.79l3.45,4.72Z"/>
        <path class="cls-2" d="M277.65,90.32v5.9c-6.12-.66-12.32-1.01-18.61-1.01s-12.54.35-18.66,1.01v-5.9c0-1.7,1.35-3.15,3.15-3.28.04-3.32,1.35-6.34,3.58-8.56,2.97-3.06,3.84-7.69,2.75-11.93-3.89-14.64-6.38-34.43-6.38-41.69,0-9.74,4.54-18,10.92-20.76.31-2.32,2.23-4.11,4.59-4.11h.04c2.4,0,4.28,1.79,4.59,4.11,6.34,2.75,10.97,11.01,10.97,20.76,0,7.25-2.58,27.05-6.42,41.69-1.09,4.24-.26,8.87,2.75,11.93,2.18,2.23,3.54,5.24,3.58,8.56,1.75.13,3.15,1.57,3.15,3.28Z"/>
        <path class="cls-2" d="M417.27,81.85c-4.28,5.77-17.96,20.28-29.76,29.85-3.36,2.71-5.46,6.95-4.85,11.23.44,3.06-.31,6.29-2.23,9,1.4,1.09,1.66,3.1.61,4.5l-3.5,4.76c-9.18-8.39-19.23-15.82-30.02-22.11l3.45-4.72c1.05-1.35,3.01-1.75,4.5-.79,1.97-2.62,4.85-4.28,7.95-4.81,4.24-.66,7.65-3.89,9.26-7.95,5.59-14.11,15.29-31.51,19.58-37.36,5.77-7.87,14.33-11.8,21.11-10.31.83-.92,2.14-1.4,3.32-1.4,1,0,1.92.26,2.75.87,1.92,1.4,2.49,4.02,1.31,5.99,3.5,5.99,2.27,15.38-3.5,23.25Z"/>
        <path class="cls-2" d="M515.28,196.03c-.74,6.82-7.25,13.72-16.6,16.61-6.86,2.18-26.48,5.64-41.64,6.34-4.37.17-8.52,2.36-10.58,6.21-1.49,2.71-3.98,4.85-7.12,5.94.44,1.75-.52,3.45-2.18,3.93l-5.59,1.79c-2.4-12.37-6.16-24.3-11.1-35.57l5.59-1.79c1.66-.48,3.45.39,4.02,2.05,3.28-.96,6.51-.61,9.26.83,3.93,2.01,8.52,1.44,12.24-.92,12.85-8.04,31.03-16.3,37.93-18.44,9.26-2.93,18.57-1.05,23.03,4.19.26-.04.61-.09.87-.09,1.97,0,3.76,1.27,4.41,3.32.74,2.23-.44,4.59-2.53,5.59Z"/>
        <path class="cls-2" d="M516.86,354.13c0,.48-.09.92-.22,1.4-.74,2.27-3.01,3.58-5.33,3.1-4.59,5.16-13.85,6.99-23.16,3.93-6.82-2.27-24.86-10.79-37.62-19.05-3.63-2.32-8.3-2.97-12.19-1.09-2.75,1.4-6.07,1.75-9.26.74-.61,1.62-2.45,2.49-4.11,1.97l-5.5-1.84c5.07-11.23,9-23.07,11.58-35.4l5.59,1.79c1.66.52,2.58,2.32,2.14,3.98,3.15,1.14,5.59,3.36,6.99,6.12,2.01,3.8,6.16,6.07,10.44,6.29,15.21.96,34.78,4.72,41.64,6.99,9.26,3.02,15.69,9.96,16.34,16.82,1.62.74,2.67,2.45,2.67,4.24Z"/>
        <path class="cls-2" d="M420.76,483.61c.39.7.61,1.49.61,2.27,0,1.4-.66,2.8-1.92,3.71-1.88,1.44-4.5,1.14-6.07-.52-6.77,1.53-15.34-2.45-21.11-10.31-4.28-5.81-13.98-23.2-19.58-37.36-1.62-4.02-5.02-7.21-9.26-8-3.1-.48-5.99-2.14-7.95-4.76-1.49.96-3.45.66-4.5-.79l-3.41-4.72c10.79-6.29,20.84-13.68,30.02-22.11l3.45,4.81c1.05,1.4.79,3.32-.61,4.46,1.92,2.75,2.67,5.94,2.23,9.05-.61,4.28,1.49,8.48,4.85,11.19,11.8,9.57,25.48,24.03,29.76,29.85,5.77,7.91,6.99,17.3,3.5,23.25Z"/>
      </g>
      <path class="cls-1" d="M267.6,437.7h-.04c-2.71.13-5.41.22-8.16.22h-.36c-2.88,0-5.77-.09-8.61-.22-42.64-2.17-81.06-20.36-109.37-48.63-28.31-28.31-46.45-66.68-48.63-109.37-.13-2.62-.22-5.28-.22-7.94v-.67c0-2.88.09-5.72.22-8.56.71-14.42,3.28-28.39,7.45-41.62,4.17-13.27,9.94-25.78,17.08-37.36,2.26-3.68,4.66-7.28,7.28-10.78,1.29-1.77,2.57-3.51,3.95-5.19,1.33-1.69,2.71-3.33,4.13-4.97.71-.84,1.46-1.73,2.22-2.57.36-.4.71-.84,1.06-1.24.18-.22.36-.44.58-.62.18-.22.35-.44.62-.62v-.04s.05-.04.09-.09c.22-.22.44-.49.67-.71.22-.27.49-.49.71-.75,1.77-1.86,3.59-3.68,5.46-5.46,1.02-.98,2.09-1.95,3.15-2.93.8-.71,1.6-1.42,2.4-2.09.8-.71,1.6-1.38,2.44-2.09,1.42-1.29,2.84-2.44,4.35-3.55,1.64-1.33,3.37-2.57,5.1-3.82,20.1-14.6,43.61-24.85,69.08-29.28v-9.89c-6.21,1.02-12.29,2.35-18.23,3.99-.4.13-.84.22-1.29.36-2.09.58-4.17,1.24-6.26,1.95-.67.22-1.38.44-2.04.67-1.29.44-2.57.89-3.81,1.33-.8.31-1.6.58-2.4.89-1.42.53-2.79,1.07-4.17,1.64-.53.22-1.06.44-1.55.67-2.04.84-3.99,1.73-5.99,2.66-.31.13-.67.31-.97.44-.98.49-1.95.93-2.93,1.42-.13.09-.27.13-.4.22-.93.49-1.91.93-2.84,1.46-.27.09-.49.27-.75.4-49.11,26-84.56,74.58-92.51,131.82-.22,1.82-.49,3.68-.67,5.55-.62,6.17-.98,12.42-.98,18.77,0,2.75.09,5.55.18,8.3.13,2.57.31,5.15.53,7.68,0,.18.05.31.05.49.18,2,.4,3.99.67,5.99.18,1.51.4,2.97.62,4.44.22,1.46.49,2.97.71,4.48v.09c9.94,54.84,45.26,100.98,93.31,125.65,2.17,1.15,4.35,2.22,6.57,3.24,2.08.98,4.21,1.91,6.34,2.8,3.15,1.33,6.35,2.57,9.63,3.64.67.27,1.33.49,2,.71.8.31,1.6.53,2.4.8,3.11,1.02,6.3,1.91,9.5,2.75,4.08,1.02,8.25,1.95,12.42,2.71,1.6.27,3.2.58,4.79.8,1.46.22,2.93.44,4.44.62.22.04.44.04.67.09,7.14.89,14.42,1.33,21.79,1.33,6.26,0,12.42-.35,18.5-.98l-.04-9.85c-3.28.4-6.57.67-9.9.84Z"/>
      <path class="cls-1" d="M162.18,271.1h-5.68c0-3.68.22-7.32.58-10.87.09-1.11.27-2.17.4-3.24.18-1.33.4-2.62.62-3.95,2.62-14.91,8.56-28.79,16.99-40.73l3.46,4.88c-.71,1.02-1.38,2.04-2,3.11-4.17,6.7-7.5,13.98-9.94,21.7-1.02,3.33-1.91,6.7-2.57,10.16-.93,4.57-1.51,9.23-1.73,13.98-.09,1.64-.13,3.28-.13,4.97Z"/>
      <path class="cls-2" d="M164.09,290.13l-5.99-.89c-.13-.89-.27-1.69-.4-2.53-.13-.84-.27-1.69-.36-2.57-.18-1.06-.31-2.17-.36-3.24l5.77.8c.31,2.84.75,5.68,1.33,8.43Z"/>
      <g>
        <path class="cls-2" d="M227.9,323.18l-2.59-17.86-.04-.17v-.04h-.13l-17.86-2.59-1.81,2.59-11.04,15.53c-6.38,9.02-13.2,18.55-19.8,27.82-1.94,2.76-3.88,5.48-5.82,8.2-4.31,6.04-8.45,11.91-12.29,17.26,2.68-1.9,5.82-4.14,9.36-6.69l24.42-17.34,6.34-4.49v-.04c2.16-1.55,4.27-3.06,6.34-4.49l1.81-1.29,6.99-4.96,10.01-7.12,6.13-4.31Z"/>
        <path class="cls-2" d="M188.71,337.65c-1.6,1.24-2.57,3.02-3.06,4.97-12.11-12.38-21.07-27.77-25.69-44.9l6.21.93c4.39,14.77,12.2,28.08,22.54,39Z"/>
      </g>
      <g>
        <path class="cls-1" d="M290.14,219.03l2.59,17.86.04.17v.04h.13s17.86,2.59,17.86,2.59l1.81-2.59,11.04-15.53c6.38-9.02,13.2-18.55,19.8-27.82,1.94-2.76,3.88-5.48,5.82-8.2,4.31-6.04,8.45-11.91,12.29-17.26-2.68,1.9-5.82,4.14-9.36,6.69l-24.42,17.34-6.34,4.49v.04c-2.16,1.55-4.27,3.06-6.34,4.49l-1.81,1.29-6.99,4.96-10.01,7.12-6.13,4.31Z"/>
        <path class="cls-1" d="M358.02,244.48l-6.17-.89c-4.22-14.29-11.67-27.2-21.47-37.85,1.64-1.2,2.66-2.97,3.19-4.84,1.55,1.64,3.15,3.33,4.61,5.1.62.75,1.2,1.51,1.77,2.26.76.89,1.42,1.82,2.09,2.75.71.93,1.33,1.86,2,2.8,2.75,4.08,5.19,8.39,7.36,12.87,2.71,5.68,4.97,11.62,6.61,17.79Z"/>
      </g>
      <path class="cls-2" d="M361.08,261.29l-5.81-.8c-.27-2.84-.71-5.63-1.29-8.39l5.9.84c.13.8.27,1.51.4,2.31.05.09.09.27.09.4,0,.09.05.18.05.27.13.71.18,1.42.31,2.13.13.93.22,1.91.31,2.84v.13c0,.09,0,.18.05.27Z"/>
      <path class="cls-2" d="M361.52,271.1c0,1.02,0,2.04-.05,3.06,0,.98-.04,2-.13,3.02v.09c-.05,1.02-.13,2.04-.22,3.11-.09,1.02-.22,2.13-.31,3.15-.05.22-.09.44-.09.67-.04.18-.04.27-.04.44-.13.71-.22,1.38-.31,2.09-.13.84-.27,1.64-.44,2.48v.09c0,.18-.04.35-.09.53-1.69,9.01-4.53,17.66-8.43,25.69-.36.75-.71,1.51-1.11,2.22-.4.75-.75,1.46-1.15,2.22-.4.71-.8,1.42-1.2,2.17-.62,1.06-1.29,2.09-1.91,3.15-.67,1.06-1.33,2.09-2,3.11-.4.62-.84,1.2-1.24,1.77l-3.46-4.88c.09-.18.22-.31.31-.49.09-.09.13-.13.13-.22.58-.8,1.07-1.55,1.51-2.31.13-.22.27-.44.4-.62.62-.98,1.15-1.95,1.73-2.97.09-.09.13-.22.18-.36.67-1.06,1.24-2.13,1.77-3.28.44-.8.8-1.6,1.2-2.4,1.33-2.79,2.53-5.68,3.59-8.61.4-1.11.8-2.22,1.15-3.33v-.04c1.11-3.42,2-6.97,2.71-10.56.89-4.57,1.46-9.27,1.73-14.02.05-1.64.13-3.28.13-4.97h5.63Z"/>
      <path class="cls-2" d="M231.7,172.29c.22-.04.44-.13.67-.18l-.8,5.63-.09.53c-10.65,3.11-20.54,8.07-29.28,14.42-1.02.71-2,1.42-2.97,2.22-.89.62-1.69,1.29-2.53,2.04-.49.44-.93.8-1.42,1.24-.44.36-.93.8-1.38,1.2-.36.31-.67.62-.97.89-.76-1.69-2-3.19-3.73-4.13,6.57-6.12,13.93-11.49,21.96-15.71.13-.09.27-.18.44-.22.53-.31,1.11-.58,1.64-.84.09-.04.18-.09.22-.13.58-.31,1.15-.53,1.73-.84.18-.04.35-.18.53-.27,1.15-.53,2.31-1.02,3.51-1.51.27-.13.58-.27.89-.4.8-.35,1.6-.67,2.44-.98.44-.18.93-.31,1.38-.49.71-.27,1.46-.53,2.22-.8.4-.09.8-.22,1.2-.35,1.2-.44,2.4-.8,3.59-1.15.27-.09.53-.13.75-.18Z"/>
      <path class="cls-2" d="M249.18,169.1l-.8,5.77c-2.84.27-5.63.71-8.39,1.24l.04-.22.8-5.68c2.35-.44,4.75-.75,7.19-1.02.4-.04.75-.09,1.15-.09Z"/>
      <path class="cls-2" d="M317.64,187.07l-4.88,3.46c-10.34-6.97-22.14-11.93-34.78-14.37-4.57-.98-9.23-1.55-13.98-1.77-1.64-.09-3.33-.13-4.97-.13v-5.63c4.61,0,9.18.27,13.67.89,1.51.18,2.97.44,4.44.71,5.06.89,9.98,2.17,14.73,3.77,1.6.53,3.15,1.11,4.7,1.73,1.15.44,2.31.93,3.46,1.42,1.15.53,2.26,1.02,3.42,1.6,4.97,2.4,9.72,5.19,14.2,8.34Z"/>
      <path class="cls-1" d="M254.02,367.82c1.64.09,3.33.13,5.01.13v5.68c-4.3,0-8.52-.27-12.65-.8-.13,0-.27,0-.4-.04-.89-.09-1.73-.22-2.57-.36-.84-.13-1.69-.27-2.53-.4-.09,0-.18-.04-.27-.04-2.4-.44-4.84-.98-7.19-1.6-1.86-.49-3.73-.98-5.55-1.6-.44-.13-.93-.27-1.38-.44-.4-.13-.75-.27-1.15-.4-1.91-.62-3.77-1.38-5.59-2.13-1.24-.53-2.48-1.07-3.68-1.64-1.29-.58-2.57-1.2-3.81-1.86-4.04-2.09-7.85-4.39-11.54-7.01l4.84-3.42c10.29,6.79,21.96,11.71,34.52,14.2,4.53.89,9.18,1.51,13.93,1.73Z"/>
      <path class="cls-2" d="M269.59,367.33c2.79-.27,5.55-.71,8.25-1.24l-.84,5.86v.09c-2.35.4-4.7.71-7.1.98-.35.04-.75.09-1.11.09l.8-5.72v-.04Z"/>
      <g>
        <path class="cls-1" d="M290.14,323.18l2.59-17.86.04-.17v-.04h.13l17.86-2.59,1.81,2.59,11.04,15.53c6.38,9.02,13.2,18.55,19.8,27.82,1.94,2.76,3.88,5.48,5.82,8.2,4.31,6.04,8.45,11.91,12.29,17.26-2.68-1.9-5.82-4.14-9.36-6.69l-24.42-17.34-6.34-4.49v-.04c-2.16-1.55-4.27-3.06-6.34-4.49l-1.81-1.29-6.99-4.96-10.01-7.12-6.13-4.31Z"/>
        <path class="cls-1" d="M329.62,345.37c-6.52,6.21-13.89,11.62-21.87,15.93h-.05c-.44.27-.89.49-1.37.75-.13.04-.27.09-.4.18-.22.13-.4.22-.67.35-.93.49-1.82.93-2.79,1.38-.84.4-1.69.8-2.53,1.15l-2.53,1.06c-.31.09-.58.22-.84.36-1.55.62-3.11,1.15-4.7,1.69-1.6.58-3.2,1.06-4.84,1.51-.09.04-.18.04-.31.09-.4.13-.84.22-1.24.31v-.09l.84-6.03c2.48-.71,4.97-1.51,7.37-2.44.4-.22.84-.36,1.29-.49.44-.18.89-.36,1.28-.53.71-.31,1.42-.58,2.13-.89,1.51-.71,3.02-1.42,4.48-2.17.98-.44,1.95-.98,2.88-1.51.89-.44,1.73-.93,2.53-1.46,2-1.15,3.95-2.44,5.86-3.73,1.2-.8,2.4-1.64,3.55-2.57.58-.4,1.15-.84,1.73-1.33,1.15-.89,2.26-1.82,3.33-2.84.93-.8,1.86-1.64,2.75-2.48.89,1.64,2.26,3.02,4.13,3.82Z"/>
      </g>
      <path class="cls-2" d="M426.12,271.1c0,2.88-.09,5.72-.22,8.56l-29.86,4.44v-.13l-4.53.67-7.14,1.02h-.09l-10.34,1.51-.09.04-10.83,1.55-3.11.44-4.97.75-.93.13-26.36,3.82-38.33,5.5-1.73.31-2.71,18.5-4.22,28.97-.13,1.15-2.57,17.7-.84,5.95-2,13.89-.04.44-1.42,10.03-.04.44-.13.93-.27,1.46-.4,3.24-5.24,35.54h-.04c-2.71.13-5.41.22-8.16.22l1.15-6.3,4.04-28.79.53-3.24.26-2.35.05-.4.04-.4,1.33-9.58.09-.4,1.91-13.62.8-5.72v-.04l5.46-38.6.18-1.33,4.35-30.84-9.89-10.03c1.02-.75,1.95-1.55,2.79-2.48.36-.27.58-.58.84-.8.4-.4.71-.93,1.07-1.46.4-.49.71-1.15,1.06-1.86.44-.62.84-1.46,1.11-2.26.22-.62.4-1.2.53-1.82v-.18c.27-.62.36-1.15.49-1.69,0-.36.05-.53.05-.8.09-.71.18-1.46.18-2.09h148.32Z"/>
      <path class="cls-1" d="M259.03,289.87v148.32c-2.88,0-5.81-.09-8.65-.22l-2.35-16.15-2.57-17.79-.75-5.55-.31-2.17v-.18l-1.46-10.2-1.15-8.07-.04-.4-.31-2.26v-.04h-.09l-.44-3.11-.71-4.92h.04l-.13-1.02-6.43-44.37-2.93-20.28-.27-1.73-66.37-9.58-3.73-.53-2.26-.31-14.2-2.09-10.34-1.51-1.02-.18-3.19-.4-3.24-.44-33.94-4.97c-.13-2.62-.22-5.28-.22-7.94l6.03.8.27.09,28.75,3.99h.13l3.1.49,2.62.44.58.09h.04l5.63.71,3.95.53,13.93,2,5.77.8,69.43,9.89,10.83-10.74c.13.31.4.53.53.84q0,.09.13.09c.27.53.67.93.93,1.33.62.8,1.33,1.55,2.13,2.09.31.31.62.58.97.84.44.4,1.07.75,1.6,1.06,2.62,1.6,5.63,2.62,9.01,2.75h.71Z"/>
      <path class="cls-2" d="M426.12,270.52l-6.35-.93-28.8-4.04h-.04l-3.24-.44-2.66-.4-.4-.04h-.09l-5.72-.8-4.13-.62-13.62-1.95-5.81-.8-69.35-9.89-10.87,10.87c-.18-.36-.4-.67-.67-.93,0-.13-.09-.27-.18-.35-.22-.4-.58-.71-.89-1.07-.09-.18-.22-.31-.44-.44-.27-.49-.67-.8-1.07-1.11-.93-.93-2-1.77-3.06-2.4-2.66-1.6-5.72-2.57-8.87-2.66-.36-.09-.58-.09-.84-.09V104.01c2.88,0,5.77.09,8.61.22l1.91,13.31,2.88,20.01,2.71,18.77.09.4,1.46,10.25v.13l.44,3.11.84,5.95,2.88,19.83.67,4.53,5.86,40.33.22,1.64,66.37,9.58,5.9.84,13.98,2.04,10.38,1.55,1.2.13,1.73.36,1.55.13,3.28.53,33.9,4.88v.04c.13,2.62.22,5.28.22,7.94Z"/>
      <path class="cls-1" d="M258.68,104.01l-1.24,6.39-4.04,28.79-.49,3.15-.4,3.19v.04l-1.46,10.29-1.86,13.22-.8,5.77-5.19,36.78-.31,2.35-4.48,31.77,9.98,9.94c-.09,0-.22.09-.27.22-.89.62-1.73,1.33-2.57,2.22-.31.31-.58.67-.93.98-.13.22-.27.4-.44.62-.27.4-.62.8-.75,1.15-1.24,1.73-2.09,3.73-2.62,5.81-.04.44-.18,1.06-.31,1.55,0,.22-.09.58-.09.84-.04.67-.04,1.33-.04,2H91.95c0-2.88.09-5.72.22-8.56l22.58-3.28h.04l11.05-1.6,7.85-1.15.53-.09,9.94-1.38,10.83-1.55,3.11-.44,4.92-.75,1.02-.13,2.35-.36,27.46-3.99,34.87-5.06.75-.09.98-.18,6.92-48.14.35-2.48,2.26-15.75.84-5.9,1.95-13.49.09-.4,1.42-10.03.05-.4.22-1.38.27-1.6.4-3.06.31-1.82,4.88-33.81c2.71-.13,5.5-.22,8.25-.22Z"/>
      <path class="cls-2" d="M435.44,263.51v-.49c-.09-1.86-.18-3.68-.36-5.5,0-.31-.04-.62-.09-.98-.05-.93-.13-1.91-.27-2.8v-.22c-.13-1.64-.31-3.28-.53-4.88-.18-1.24-.31-2.48-.53-3.73,0-.13-.04-.27-.04-.4-.05-.27-.09-.53-.13-.75-2.71-17.35-7.94-33.85-15.31-49.16-3.73-7.72-7.99-15.13-12.73-22.18-1.11-1.6-2.22-3.19-3.37-4.79-1.15-1.6-2.35-3.19-3.59-4.75-1.02-1.29-2.04-2.62-3.1-3.9-16.24-19.65-36.65-35.8-59.85-47.03-1.95-.93-3.9-1.82-5.86-2.71-1.95-.84-3.95-1.69-5.94-2.48-2.71-1.02-5.37-2.04-8.12-2.97-8.21-2.75-16.68-4.97-25.38-6.52-2.53-.44-5.06-.84-7.63-1.2-7.72-1.02-15.57-1.55-23.56-1.55-6.3,0-12.51.36-18.64.98v9.85c3.33-.4,6.7-.67,10.07-.84,2.71-.13,5.46-.22,8.21-.22h.36c2.88,0,5.77.09,8.61.22,85.28,4.35,153.69,72.76,157.99,158.04v.04c.13,2.62.22,5.28.22,7.94v.58c0,2.88-.09,5.72-.22,8.56-.75,14.69-3.37,28.88-7.59,42.33-.04,0-.04.04-.04.09-.62,1.91-1.29,3.82-1.95,5.72-1.86,5.06-3.9,9.98-6.21,14.82-.67,1.38-1.33,2.75-2.04,4.13-.93,1.95-1.95,3.82-3.06,5.68-.09.18-.18.4-.31.58-.98,1.73-1.95,3.42-3.02,5.1-.22.36-.4.71-.67,1.07-.8,1.33-1.64,2.66-2.57,3.99-.04.13-.13.27-.22.4-.89,1.38-1.82,2.71-2.8,4.04-.31.44-.62.89-.97,1.33-.8,1.15-1.64,2.26-2.48,3.37-.18.22-.36.49-.53.71-.53.75-1.11,1.42-1.69,2.13-.09.13-.22.27-.31.4-1.33,1.69-2.75,3.33-4.13,4.92-3.42,3.9-6.96,7.68-10.69,11.22-1.82,1.77-3.64,3.46-5.55,5.06-1.86,1.73-3.77,3.33-5.77,4.84-.98.84-1.95,1.6-2.97,2.31-2,1.6-3.99,3.06-6.08,4.44-3.28,2.26-6.66,4.44-10.07,6.43-1.42.89-2.88,1.73-4.35,2.48-1.64.98-3.33,1.86-5.01,2.66-2.53,1.29-5.1,2.53-7.72,3.68-1.2.58-2.4,1.06-3.64,1.55-.71.31-1.46.62-2.22.89-.75.27-1.51.53-2.26.84-9.94,3.82-20.32,6.7-31.06,8.56l.05,9.85c6.48-.98,12.82-2.4,19.03-4.13.22-.09.4-.13.58-.18,2.79-.8,5.55-1.64,8.3-2.57,2.75-.93,5.41-1.91,8.07-2.97.49-.18.98-.4,1.46-.58l4.39-1.86c1.46-.62,2.89-1.29,4.35-1.95,1.64-.75,3.24-1.55,4.84-2.4.4-.18.75-.36,1.15-.58.22-.13.44-.22.67-.36.8-.4,1.55-.84,2.35-1.24h.05c14.46-7.85,27.73-17.61,39.4-29.02.13-.18.31-.36.49-.49,8.39-8.25,15.97-17.39,22.63-27.2,1.15-1.77,2.31-3.55,3.46-5.37,1.11-1.82,2.22-3.59,3.28-5.46.71-1.24,1.42-2.48,2.08-3.73.67-1.29,1.33-2.53,2-3.82.67-1.24,1.29-2.53,1.91-3.82,6.7-13.84,11.62-28.71,14.51-44.28.09-.31.13-.58.18-.89v-.18c.27-1.42.49-2.84.71-4.26.18-1.2.36-2.4.53-3.59.04-.27.04-.49.09-.75.04-.36.09-.75.13-1.15.22-1.77.4-3.64.58-5.46.13-1.77.27-3.55.4-5.32v-.18c.13-1.73.18-3.46.22-5.19.09-1.73.09-3.46.09-5.24,0-2.53-.04-5.1-.18-7.59Z"/>
    </g>
  </g>
</svg>